<?xml version="1.0" encoding="UTF-8"?>
<!DOCTYPE svg
PUBLIC "-//W3C//DTD SVG 1.1//EN"
       "http://www.w3.org/Graphics/SVG/1.1/DTD/svg11.dtd">
<svg viewBox="28 -7 1263 620" width="1235px" height="627px" xmlns="http://www.w3.org/2000/svg" version="1.1">
   <line x1="44" y1="404" x2="34" y2="404" style="stroke:#c00;stroke-width:1;"/>
   <line x1="40" y1="555" x2="50" y2="555" style="stroke:#c00;stroke-width:1;"/>
   <line x1="34" y1="404" x2="40" y2="555" style="stroke:#c00;stroke-width:1;"/>
   <line x1="36.5" y1="404" x2="40.035533905933" y2="407.53553390593" style="stroke:#c00;stroke-width:2;"/>
   <line x1="36.5" y1="404" x2="40.035533905933" y2="400.46446609407" style="stroke:#c00;stroke-width:2;"/>
   <line x1="45" y1="555" x2="41.464466094067" y2="558.53553390593" style="stroke:#c00;stroke-width:2;"/>
   <line x1="45" y1="555" x2="41.464466094067" y2="551.46446609407" style="stroke:#c00;stroke-width:2;"/>
   <line x1="473" y1="126" x2="463" y2="126" style="stroke:#bbb;stroke-width:1;"/>
   <line x1="337" y1="49" x2="327" y2="49" style="stroke:#bbb;stroke-width:1;"/>
   <line x1="463" y1="126" x2="337" y2="49" style="stroke:#bbb;stroke-width:1;"/>
   <line x1="465.5" y1="126" x2="469.03553390593" y2="129.53553390593" style="stroke:#bbb;stroke-width:2;"/>
   <line x1="465.5" y1="126" x2="469.03553390593" y2="122.46446609407" style="stroke:#bbb;stroke-width:2;"/>
   <line x1="332" y1="49" x2="335.53553390593" y2="52.535533905933" style="stroke:#bbb;stroke-width:2;"/>
   <line x1="332" y1="49" x2="335.53553390593" y2="45.464466094067" style="stroke:#bbb;stroke-width:2;"/>
   <line x1="557" y1="106" x2="567" y2="106" style="stroke:#cb0;stroke-width:1;"/>
   <line x1="639" y1="49" x2="649" y2="49" style="stroke:#cb0;stroke-width:1;"/>
   <line x1="567" y1="106" x2="639" y2="49" style="stroke:#cb0;stroke-width:1;"/>
   <line x1="564.5" y1="106" x2="560.96446609407" y2="109.53553390593" style="stroke:#cb0;stroke-width:2;"/>
   <line x1="564.5" y1="106" x2="560.96446609407" y2="102.46446609407" style="stroke:#cb0;stroke-width:2;"/>
   <line x1="644" y1="49" x2="640.46446609407" y2="52.535533905933" style="stroke:#cb0;stroke-width:2;"/>
   <line x1="644" y1="49" x2="640.46446609407" y2="45.464466094067" style="stroke:#cb0;stroke-width:2;"/>
   <line x1="234" y1="89" x2="224" y2="89" style="stroke:#333;stroke-width:1;"/>
   <line x1="150" y1="53" x2="140" y2="53" style="stroke:#333;stroke-width:1;"/>
   <line x1="224" y1="89" x2="150" y2="53" style="stroke:#333;stroke-width:1;"/>
   <line x1="226.5" y1="89" x2="230.03553390593" y2="92.535533905933" style="stroke:#333;stroke-width:2;"/>
   <line x1="226.5" y1="89" x2="230.03553390593" y2="85.464466094067" style="stroke:#333;stroke-width:2;"/>
   <line x1="145" y1="53" x2="148.53553390593" y2="56.535533905933" style="stroke:#333;stroke-width:2;"/>
   <line x1="145" y1="53" x2="148.53553390593" y2="49.464466094067" style="stroke:#333;stroke-width:2;"/>
   <line x1="1022" y1="126" x2="1032" y2="126" style="stroke:#333;stroke-width:1;"/>
   <line x1="1102" y1="38" x2="1112" y2="38" style="stroke:#333;stroke-width:1;"/>
   <line x1="1032" y1="126" x2="1102" y2="38" style="stroke:#333;stroke-width:1;"/>
   <line x1="1029.5" y1="126" x2="1025.9644660941" y2="129.53553390593" style="stroke:#333;stroke-width:2;"/>
   <line x1="1029.5" y1="126" x2="1025.9644660941" y2="122.46446609407" style="stroke:#333;stroke-width:2;"/>
   <line x1="1107" y1="38" x2="1103.4644660941" y2="41.535533905933" style="stroke:#333;stroke-width:2;"/>
   <line x1="1107" y1="38" x2="1103.4644660941" y2="34.464466094067" style="stroke:#333;stroke-width:2;"/>
   <line x1="880" y1="146" x2="870" y2="146" style="stroke:#0b0;stroke-width:1;"/>
   <line x1="812" y1="49" x2="802" y2="49" style="stroke:#0b0;stroke-width:1;"/>
   <line x1="870" y1="146" x2="812" y2="49" style="stroke:#0b0;stroke-width:1;"/>
   <line x1="872.5" y1="146" x2="876.03553390593" y2="149.53553390593" style="stroke:#0b0;stroke-width:2;"/>
   <line x1="872.5" y1="146" x2="876.03553390593" y2="142.46446609407" style="stroke:#0b0;stroke-width:2;"/>
   <line x1="807" y1="49" x2="810.53553390593" y2="52.535533905933" style="stroke:#0b0;stroke-width:2;"/>
   <line x1="807" y1="49" x2="810.53553390593" y2="45.464466094067" style="stroke:#0b0;stroke-width:2;"/>
   <line x1="240" y1="289" x2="230" y2="289" style="stroke:#0b0;stroke-width:1;"/>
   <line x1="146" y1="153" x2="136" y2="153" style="stroke:#0b0;stroke-width:1;"/>
   <line x1="230" y1="289" x2="146" y2="153" style="stroke:#0b0;stroke-width:1;"/>
   <line x1="232.5" y1="289" x2="236.03553390593" y2="292.53553390593" style="stroke:#0b0;stroke-width:2;"/>
   <line x1="232.5" y1="289" x2="236.03553390593" y2="285.46446609407" style="stroke:#0b0;stroke-width:2;"/>
   <line x1="141" y1="153" x2="144.53553390593" y2="156.53553390593" style="stroke:#0b0;stroke-width:2;"/>
   <line x1="141" y1="153" x2="144.53553390593" y2="149.46446609407" style="stroke:#0b0;stroke-width:2;"/>
   <line x1="240" y1="369" x2="230" y2="369" style="stroke:#b0b;stroke-width:1;"/>
   <line x1="242" y1="516" x2="252" y2="516" style="stroke:#b0b;stroke-width:1;"/>
   <line x1="230" y1="369" x2="242" y2="516" style="stroke:#b0b;stroke-width:1;"/>
   <line x1="232.5" y1="369" x2="236.03553390593" y2="372.53553390593" style="stroke:#b0b;stroke-width:2;"/>
   <line x1="232.5" y1="369" x2="236.03553390593" y2="365.46446609407" style="stroke:#b0b;stroke-width:2;"/>
   <line x1="247" y1="516" x2="243.46446609407" y2="519.53553390593" style="stroke:#b0b;stroke-width:2;"/>
   <line x1="247" y1="516" x2="243.46446609407" y2="512.46446609407" style="stroke:#b0b;stroke-width:2;"/>
   <line x1="240" y1="309" x2="230" y2="309" style="stroke:#b0b;stroke-width:1;"/>
   <line x1="147" y1="324" x2="137" y2="324" style="stroke:#b0b;stroke-width:1;"/>
   <line x1="230" y1="309" x2="147" y2="324" style="stroke:#b0b;stroke-width:1;"/>
   <line x1="232.5" y1="309" x2="236.03553390593" y2="312.53553390593" style="stroke:#b0b;stroke-width:2;"/>
   <line x1="232.5" y1="309" x2="236.03553390593" y2="305.46446609407" style="stroke:#b0b;stroke-width:2;"/>
   <line x1="142" y1="324" x2="145.53553390593" y2="327.53553390593" style="stroke:#b0b;stroke-width:2;"/>
   <line x1="142" y1="324" x2="145.53553390593" y2="320.46446609407" style="stroke:#b0b;stroke-width:2;"/>
   <line x1="379" y1="329" x2="389" y2="329" style="stroke:#bbb;stroke-width:1;"/>
   <line x1="445" y1="287" x2="455" y2="287" style="stroke:#bbb;stroke-width:1;"/>
   <line x1="389" y1="329" x2="445" y2="287" style="stroke:#bbb;stroke-width:1;"/>
   <line x1="386.5" y1="329" x2="382.96446609407" y2="332.53553390593" style="stroke:#bbb;stroke-width:2;"/>
   <line x1="386.5" y1="329" x2="382.96446609407" y2="325.46446609407" style="stroke:#bbb;stroke-width:2;"/>
   <line x1="450" y1="287" x2="446.46446609407" y2="290.53553390593" style="stroke:#bbb;stroke-width:2;"/>
   <line x1="450" y1="287" x2="446.46446609407" y2="283.46446609407" style="stroke:#bbb;stroke-width:2;"/>
   <line x1="379" y1="349" x2="389" y2="349" style="stroke:#bbb;stroke-width:1;"/>
   <line x1="448" y1="458" x2="458" y2="458" style="stroke:#bbb;stroke-width:1;"/>
   <line x1="389" y1="349" x2="448" y2="458" style="stroke:#bbb;stroke-width:1;"/>
   <line x1="386.5" y1="349" x2="382.96446609407" y2="352.53553390593" style="stroke:#bbb;stroke-width:2;"/>
   <line x1="386.5" y1="349" x2="382.96446609407" y2="345.46446609407" style="stroke:#bbb;stroke-width:2;"/>
   <line x1="453" y1="458" x2="449.46446609407" y2="461.53553390593" style="stroke:#bbb;stroke-width:2;"/>
   <line x1="453" y1="458" x2="449.46446609407" y2="454.46446609407" style="stroke:#bbb;stroke-width:2;"/>
   <line x1="379" y1="189" x2="389" y2="189" style="stroke:#bbb;stroke-width:1;"/>
   <line x1="463" y1="46" x2="473" y2="46" style="stroke:#bbb;stroke-width:1;"/>
   <line x1="389" y1="189" x2="463" y2="46" style="stroke:#bbb;stroke-width:1;"/>
   <line x1="386.5" y1="189" x2="382.96446609407" y2="192.53553390593" style="stroke:#bbb;stroke-width:2;"/>
   <line x1="386.5" y1="189" x2="382.96446609407" y2="185.46446609407" style="stroke:#bbb;stroke-width:2;"/>
   <line x1="468" y1="46" x2="464.46446609407" y2="49.535533905933" style="stroke:#bbb;stroke-width:2;"/>
   <line x1="468" y1="46" x2="464.46446609407" y2="42.464466094067" style="stroke:#bbb;stroke-width:2;"/>
   <line x1="802" y1="209" x2="812" y2="209" style="stroke:#333;stroke-width:1;"/>
   <line x1="871" y1="242" x2="881" y2="242" style="stroke:#333;stroke-width:1;"/>
   <line x1="812" y1="209" x2="871" y2="242" style="stroke:#333;stroke-width:1;"/>
   <line x1="809.5" y1="209" x2="805.96446609407" y2="212.53553390593" style="stroke:#333;stroke-width:2;"/>
   <line x1="809.5" y1="209" x2="805.96446609407" y2="205.46446609407" style="stroke:#333;stroke-width:2;"/>
   <line x1="876" y1="242" x2="872.46446609407" y2="245.53553390593" style="stroke:#333;stroke-width:2;"/>
   <line x1="876" y1="242" x2="872.46446609407" y2="238.46446609407" style="stroke:#333;stroke-width:2;"/>
   <line x1="802" y1="229" x2="812" y2="229" style="stroke:#bbb;stroke-width:1;"/>
   <line x1="887" y1="365" x2="897" y2="365" style="stroke:#bbb;stroke-width:1;"/>
   <line x1="812" y1="229" x2="887" y2="365" style="stroke:#bbb;stroke-width:1;"/>
   <line x1="809.5" y1="229" x2="805.96446609407" y2="232.53553390593" style="stroke:#bbb;stroke-width:2;"/>
   <line x1="809.5" y1="229" x2="805.96446609407" y2="225.46446609407" style="stroke:#bbb;stroke-width:2;"/>
   <line x1="892" y1="365" x2="888.46446609407" y2="368.53553390593" style="stroke:#bbb;stroke-width:2;"/>
   <line x1="892" y1="365" x2="888.46446609407" y2="361.46446609407" style="stroke:#bbb;stroke-width:2;"/>
   <line x1="802" y1="249" x2="812" y2="249" style="stroke:#0bf;stroke-width:1;"/>
   <line x1="873" y1="484" x2="883" y2="484" style="stroke:#0bf;stroke-width:1;"/>
   <line x1="812" y1="249" x2="873" y2="484" style="stroke:#0bf;stroke-width:1;"/>
   <line x1="809.5" y1="249" x2="805.96446609407" y2="252.53553390593" style="stroke:#0bf;stroke-width:2;"/>
   <line x1="809.5" y1="249" x2="805.96446609407" y2="245.46446609407" style="stroke:#0bf;stroke-width:2;"/>
   <line x1="878" y1="484" x2="874.46446609407" y2="487.53553390593" style="stroke:#0bf;stroke-width:2;"/>
   <line x1="878" y1="484" x2="874.46446609407" y2="480.46446609407" style="stroke:#0bf;stroke-width:2;"/>
   <rect width="93" height="20" x="44" y="294" style="fill:#007;stroke:black;"/>
   <text width="93" height="20" x="49" y="308" style="fill:#fff;" font-family="Arial" font-size="16px"> apariencia</text>
   <rect width="93" height="20" x="44" y="314" style="fill:#aea;stroke:black;"/>
   <text width="93" height="20" x="49" y="328" style="fill:black;" font-family="Arial" font-size="16px">Id</text>
   <rect width="93" height="20" x="44" y="334" style="fill:none;stroke:black;"/>
   <text width="93" height="20" x="49" y="348" style="fill:black;" font-family="Arial" font-size="16px">Inspeccion</text>
   <rect width="93" height="20" x="44" y="354" style="fill:none;stroke:black;"/>
   <text width="93" height="20" x="49" y="368" style="fill:black;" font-family="Arial" font-size="16px">Nombre</text>
   <rect width="93" height="20" x="44" y="374" style="fill:none;stroke:black;"/>
   <text width="93" height="20" x="49" y="388" style="fill:black;" font-family="Arial" font-size="16px">Escala</text>
   <rect width="93" height="20" x="44" y="394" style="fill:none;stroke:black;"/>
   <text width="93" height="20" x="49" y="408" style="fill:black;" font-family="Arial" font-size="16px">fk_espuma</text>
   <rect width="93" height="20" x="44" y="414" style="fill:none;stroke:black;"/>
   <text width="93" height="20" x="49" y="428" style="fill:black;" font-family="Arial" font-size="16px">Comentario</text>
   <rect width="93" height="20" x="44" y="434" style="fill:none;stroke:black;"/>
   <text width="93" height="20" x="49" y="448" style="fill:black;" font-family="Arial" font-size="16px">Nota</text>
   <rect width="93" height="20" x="43" y="123" style="fill:#007;stroke:black;"/>
   <text width="93" height="20" x="48" y="137" style="fill:#fff;" font-family="Arial" font-size="16px"> aroma</text>
   <rect width="93" height="20" x="43" y="143" style="fill:#aea;stroke:black;"/>
   <text width="93" height="20" x="48" y="157" style="fill:black;" font-family="Arial" font-size="16px">id</text>
   <rect width="93" height="20" x="43" y="163" style="fill:none;stroke:black;"/>
   <text width="93" height="20" x="48" y="177" style="fill:black;" font-family="Arial" font-size="16px">Nombre</text>
   <rect width="93" height="20" x="43" y="183" style="fill:none;stroke:black;"/>
   <text width="93" height="20" x="48" y="197" style="fill:black;" font-family="Arial" font-size="16px">Escala</text>
   <rect width="93" height="20" x="43" y="203" style="fill:none;stroke:black;"/>
   <text width="93" height="20" x="48" y="217" style="fill:black;" font-family="Arial" font-size="16px">Comentario</text>
   <rect width="93" height="20" x="43" y="223" style="fill:none;stroke:black;"/>
   <text width="93" height="20" x="48" y="237" style="fill:black;" font-family="Arial" font-size="16px">Nota</text>
   <rect width="94" height="20" x="46" y="23" style="fill:#007;stroke:black;"/>
   <text width="94" height="20" x="51" y="37" style="fill:#fff;" font-family="Arial" font-size="16px"> categorias</text>
   <rect width="94" height="20" x="46" y="43" style="fill:#aea;stroke:black;"/>
   <text width="94" height="20" x="51" y="57" style="fill:black;" font-family="Arial" font-size="16px">Id_categoria</text>
   <rect width="94" height="20" x="46" y="63" style="fill:none;stroke:black;"/>
   <text width="94" height="20" x="51" y="77" style="fill:black;" font-family="Arial" font-size="16px">Nombre</text>
   <rect width="84" height="20" x="473" y="16" style="fill:#007;stroke:black;"/>
   <text width="84" height="20" x="478" y="30" style="fill:#fff;" font-family="Arial" font-size="16px"> cerveza</text>
   <rect width="84" height="20" x="473" y="36" style="fill:#aea;stroke:black;"/>
   <text width="84" height="20" x="478" y="50" style="fill:black;" font-family="Arial" font-size="16px">Id_cerveza</text>
   <rect width="84" height="20" x="473" y="56" style="fill:none;stroke:black;"/>
   <text width="84" height="20" x="478" y="70" style="fill:black;" font-family="Arial" font-size="16px">Nombre</text>
   <rect width="84" height="20" x="473" y="76" style="fill:none;stroke:black;"/>
   <text width="84" height="20" x="478" y="90" style="fill:black;" font-family="Arial" font-size="16px">Codigo</text>
   <rect width="84" height="20" x="473" y="96" style="fill:none;stroke:black;"/>
   <text width="84" height="20" x="478" y="110" style="fill:black;" font-family="Arial" font-size="16px">fk_usuario</text>
   <rect width="84" height="20" x="473" y="116" style="fill:none;stroke:black;"/>
   <text width="84" height="20" x="478" y="130" style="fill:black;" font-family="Arial" font-size="16px">fk_estilo</text>
   <rect width="67" height="20" x="50" y="525" style="fill:#007;stroke:black;"/>
   <text width="67" height="20" x="55" y="539" style="fill:#fff;" font-family="Arial" font-size="16px"> espuma</text>
   <rect width="67" height="20" x="50" y="545" style="fill:#aea;stroke:black;"/>
   <text width="67" height="20" x="55" y="559" style="fill:black;" font-family="Arial" font-size="16px">Id</text>
   <rect width="67" height="20" x="50" y="565" style="fill:none;stroke:black;"/>
   <text width="67" height="20" x="55" y="579" style="fill:black;" font-family="Arial" font-size="16px">Nombre</text>
   <rect width="67" height="20" x="50" y="585" style="fill:none;stroke:black;"/>
   <text width="67" height="20" x="55" y="599" style="fill:black;" font-family="Arial" font-size="16px">Escala</text>
   <rect width="93" height="20" x="234" y="19" style="fill:#007;stroke:black;"/>
   <text width="93" height="20" x="239" y="33" style="fill:#fff;" font-family="Arial" font-size="16px"> estilos</text>
   <rect width="93" height="20" x="234" y="39" style="fill:none;stroke:black;"/>
   <text width="93" height="20" x="239" y="53" style="fill:black;" font-family="Arial" font-size="16px">Id_estilo</text>
   <rect width="93" height="20" x="234" y="59" style="fill:none;stroke:black;"/>
   <text width="93" height="20" x="239" y="73" style="fill:black;" font-family="Arial" font-size="16px">Nombre</text>
   <rect width="93" height="20" x="234" y="79" style="fill:none;stroke:black;"/>
   <text width="93" height="20" x="239" y="93" style="fill:black;" font-family="Arial" font-size="16px">fk_categoria</text>
   <rect width="136" height="20" x="1112" y="8" style="fill:#007;stroke:black;"/>
   <text width="136" height="20" x="1117" y="22" style="fill:#fff;" font-family="Arial" font-size="16px"> evento</text>
   <rect width="136" height="20" x="1112" y="28" style="fill:#aea;stroke:black;"/>
   <text width="136" height="20" x="1117" y="42" style="fill:black;" font-family="Arial" font-size="16px">Id_evento</text>
   <rect width="136" height="20" x="1112" y="48" style="fill:none;stroke:black;"/>
   <text width="136" height="20" x="1117" y="62" style="fill:black;" font-family="Arial" font-size="16px">Nombre</text>
   <rect width="136" height="20" x="1112" y="68" style="fill:none;stroke:black;"/>
   <text width="136" height="20" x="1117" y="82" style="fill:black;" font-family="Arial" font-size="16px">Fecha</text>
   <rect width="136" height="20" x="1112" y="88" style="fill:none;stroke:black;"/>
   <text width="136" height="20" x="1117" y="102" style="fill:black;" font-family="Arial" font-size="16px">Lugar</text>
   <rect width="136" height="20" x="1112" y="108" style="fill:none;stroke:black;"/>
   <text width="136" height="20" x="1117" y="122" style="fill:black;" font-family="Arial" font-size="16px">fk_evento_cerveza</text>
   <rect width="136" height="20" x="1112" y="128" style="fill:none;stroke:black;"/>
   <text width="136" height="20" x="1117" y="142" style="fill:black;" font-family="Arial" font-size="16px">fk_evento_juez</text>
   <rect width="136" height="20" x="1112" y="148" style="fill:none;stroke:black;"/>
   <text width="136" height="20" x="1117" y="162" style="fill:black;" font-family="Arial" font-size="16px">fk_region</text>
   <rect width="136" height="20" x="1112" y="168" style="fill:none;stroke:black;"/>
   <text width="136" height="20" x="1117" y="182" style="fill:black;" font-family="Arial" font-size="16px">Primer_puesto</text>
   <rect width="136" height="20" x="1112" y="188" style="fill:none;stroke:black;"/>
   <text width="136" height="20" x="1117" y="202" style="fill:black;" font-family="Arial" font-size="16px">Segundo_puesto</text>
   <rect width="136" height="20" x="1112" y="208" style="fill:none;stroke:black;"/>
   <text width="136" height="20" x="1117" y="222" style="fill:black;" font-family="Arial" font-size="16px">Tercer_puesto</text>
   <rect width="142" height="20" x="880" y="76" style="fill:#007;stroke:black;"/>
   <text width="142" height="20" x="885" y="90" style="fill:#fff;" font-family="Arial" font-size="16px"> evento_usuarios</text>
   <rect width="142" height="20" x="880" y="96" style="fill:#aea;stroke:black;"/>
   <text width="142" height="20" x="885" y="110" style="fill:black;" font-family="Arial" font-size="16px">Id_evento_usuarios</text>
   <rect width="142" height="20" x="880" y="116" style="fill:none;stroke:black;"/>
   <text width="142" height="20" x="885" y="130" style="fill:black;" font-family="Arial" font-size="16px">fk_evento</text>
   <rect width="142" height="20" x="880" y="136" style="fill:none;stroke:black;"/>
   <text width="142" height="20" x="885" y="150" style="fill:black;" font-family="Arial" font-size="16px">fk_usuarios</text>
   <rect width="67" height="20" x="252" y="486" style="fill:#007;stroke:black;"/>
   <text width="67" height="20" x="257" y="500" style="fill:#fff;" font-family="Arial" font-size="16px"> fallas</text>
   <rect width="67" height="20" x="252" y="506" style="fill:#aea;stroke:black;"/>
   <text width="67" height="20" x="257" y="520" style="fill:black;" font-family="Arial" font-size="16px">Id</text>
   <rect width="67" height="20" x="252" y="526" style="fill:none;stroke:black;"/>
   <text width="67" height="20" x="257" y="540" style="fill:black;" font-family="Arial" font-size="16px">Nombre</text>
   <rect width="67" height="20" x="252" y="546" style="fill:none;stroke:black;"/>
   <text width="67" height="20" x="257" y="560" style="fill:black;" font-family="Arial" font-size="16px">Escala</text>
   <rect width="67" height="20" x="252" y="566" style="fill:none;stroke:black;"/>
   <text width="67" height="20" x="257" y="580" style="fill:black;" font-family="Arial" font-size="16px">Nota</text>
   <rect width="139" height="20" x="240" y="139" style="fill:#007;stroke:black;"/>
   <text width="139" height="20" x="245" y="153" style="fill:#fff;" font-family="Arial" font-size="16px"> general</text>
   <rect width="139" height="20" x="240" y="159" style="fill:#aea;stroke:black;"/>
   <text width="139" height="20" x="245" y="173" style="fill:black;" font-family="Arial" font-size="16px">Id</text>
   <rect width="139" height="20" x="240" y="179" style="fill:none;stroke:black;"/>
   <text width="139" height="20" x="245" y="193" style="fill:black;" font-family="Arial" font-size="16px">fk_cerveza</text>
   <rect width="139" height="20" x="240" y="199" style="fill:none;stroke:black;"/>
   <text width="139" height="20" x="245" y="213" style="fill:black;" font-family="Arial" font-size="16px">Ejemplo</text>
   <rect width="139" height="20" x="240" y="219" style="fill:none;stroke:black;"/>
   <text width="139" height="20" x="245" y="233" style="fill:black;" font-family="Arial" font-size="16px">Sin_fallas</text>
   <rect width="139" height="20" x="240" y="239" style="fill:none;stroke:black;"/>
   <text width="139" height="20" x="245" y="253" style="fill:black;" font-family="Arial" font-size="16px">Maravilloso</text>
   <rect width="139" height="20" x="240" y="259" style="fill:none;stroke:black;"/>
   <text width="139" height="20" x="245" y="273" style="fill:black;" font-family="Arial" font-size="16px">Comentario</text>
   <rect width="139" height="20" x="240" y="279" style="fill:none;stroke:black;"/>
   <text width="139" height="20" x="245" y="293" style="fill:black;" font-family="Arial" font-size="16px">fk_aroma</text>
   <rect width="139" height="20" x="240" y="299" style="fill:none;stroke:black;"/>
   <text width="139" height="20" x="245" y="313" style="fill:black;" font-family="Arial" font-size="16px">fk_apariencia</text>
   <rect width="139" height="20" x="240" y="319" style="fill:none;stroke:black;"/>
   <text width="139" height="20" x="245" y="333" style="fill:black;" font-family="Arial" font-size="16px">fk_sabor</text>
   <rect width="139" height="20" x="240" y="339" style="fill:none;stroke:black;"/>
   <text width="139" height="20" x="245" y="353" style="fill:black;" font-family="Arial" font-size="16px">fk_sensacion_boca</text>
   <rect width="139" height="20" x="240" y="359" style="fill:none;stroke:black;"/>
   <text width="139" height="20" x="245" y="373" style="fill:black;" font-family="Arial" font-size="16px">fk_fallas</text>
   <rect width="154" height="20" x="881" y="212" style="fill:#007;stroke:black;"/>
   <text width="154" height="20" x="886" y="226" style="fill:#fff;" font-family="Arial" font-size="16px"> rango_competidor</text>
   <rect width="154" height="20" x="881" y="232" style="fill:#aea;stroke:black;"/>
   <text width="154" height="20" x="886" y="246" style="fill:black;" font-family="Arial" font-size="16px">Id_rango_competidor</text>
   <rect width="154" height="20" x="881" y="252" style="fill:none;stroke:black;"/>
   <text width="154" height="20" x="886" y="266" style="fill:black;" font-family="Arial" font-size="16px">Nombre</text>
   <rect width="103" height="20" x="897" y="335" style="fill:#007;stroke:black;"/>
   <text width="103" height="20" x="902" y="349" style="fill:#fff;" font-family="Arial" font-size="16px"> rango_juez</text>
   <rect width="103" height="20" x="897" y="355" style="fill:#aea;stroke:black;"/>
   <text width="103" height="20" x="902" y="369" style="fill:black;" font-family="Arial" font-size="16px">Id_rango_juez</text>
   <rect width="103" height="20" x="897" y="375" style="fill:none;stroke:black;"/>
   <text width="103" height="20" x="902" y="389" style="fill:black;" font-family="Arial" font-size="16px">Nombre</text>
   <rect width="73" height="20" x="883" y="454" style="fill:#007;stroke:black;"/>
   <text width="73" height="20" x="888" y="468" style="fill:#fff;" font-family="Arial" font-size="16px"> region</text>
   <rect width="73" height="20" x="883" y="474" style="fill:#aea;stroke:black;"/>
   <text width="73" height="20" x="888" y="488" style="fill:black;" font-family="Arial" font-size="16px">Id_region</text>
   <rect width="73" height="20" x="883" y="494" style="fill:none;stroke:black;"/>
   <text width="73" height="20" x="888" y="508" style="fill:black;" font-family="Arial" font-size="16px">Nombre</text>
   <rect width="93" height="20" x="455" y="257" style="fill:#007;stroke:black;"/>
   <text width="93" height="20" x="460" y="271" style="fill:#fff;" font-family="Arial" font-size="16px"> sabor</text>
   <rect width="93" height="20" x="455" y="277" style="fill:#aea;stroke:black;"/>
   <text width="93" height="20" x="460" y="291" style="fill:black;" font-family="Arial" font-size="16px">Id</text>
   <rect width="93" height="20" x="455" y="297" style="fill:none;stroke:black;"/>
   <text width="93" height="20" x="460" y="311" style="fill:black;" font-family="Arial" font-size="16px">Nombre</text>
   <rect width="93" height="20" x="455" y="317" style="fill:none;stroke:black;"/>
   <text width="93" height="20" x="460" y="331" style="fill:black;" font-family="Arial" font-size="16px">Escala</text>
   <rect width="93" height="20" x="455" y="337" style="fill:none;stroke:black;"/>
   <text width="93" height="20" x="460" y="351" style="fill:black;" font-family="Arial" font-size="16px">Comentario</text>
   <rect width="93" height="20" x="455" y="357" style="fill:none;stroke:black;"/>
   <text width="93" height="20" x="460" y="371" style="fill:black;" font-family="Arial" font-size="16px">Nota</text>
   <rect width="121" height="20" x="458" y="428" style="fill:#007;stroke:black;"/>
   <text width="121" height="20" x="463" y="442" style="fill:#fff;" font-family="Arial" font-size="16px"> sensacion_boca</text>
   <rect width="121" height="20" x="458" y="448" style="fill:#aea;stroke:black;"/>
   <text width="121" height="20" x="463" y="462" style="fill:black;" font-family="Arial" font-size="16px">Id</text>
   <rect width="121" height="20" x="458" y="468" style="fill:none;stroke:black;"/>
   <text width="121" height="20" x="463" y="482" style="fill:black;" font-family="Arial" font-size="16px">Nombre</text>
   <rect width="121" height="20" x="458" y="488" style="fill:none;stroke:black;"/>
   <text width="121" height="20" x="463" y="502" style="fill:black;" font-family="Arial" font-size="16px">Escala</text>
   <rect width="121" height="20" x="458" y="508" style="fill:none;stroke:black;"/>
   <text width="121" height="20" x="463" y="522" style="fill:black;" font-family="Arial" font-size="16px">Comentario</text>
   <rect width="121" height="20" x="458" y="528" style="fill:none;stroke:black;"/>
   <text width="121" height="20" x="463" y="542" style="fill:black;" font-family="Arial" font-size="16px">Nota</text>
   <rect width="153" height="20" x="649" y="19" style="fill:#007;stroke:black;"/>
   <text width="153" height="20" x="654" y="33" style="fill:#fff;" font-family="Arial" font-size="16px"> usuarios</text>
   <rect width="153" height="20" x="649" y="39" style="fill:#aea;stroke:black;"/>
   <text width="153" height="20" x="654" y="53" style="fill:black;" font-family="Arial" font-size="16px">Id_usuario</text>
   <rect width="153" height="20" x="649" y="59" style="fill:none;stroke:black;"/>
   <text width="153" height="20" x="654" y="73" style="fill:black;" font-family="Arial" font-size="16px">DNI</text>
   <rect width="153" height="20" x="649" y="79" style="fill:none;stroke:black;"/>
   <text width="153" height="20" x="654" y="93" style="fill:black;" font-family="Arial" font-size="16px">Nombre</text>
   <rect width="153" height="20" x="649" y="99" style="fill:none;stroke:black;"/>
   <text width="153" height="20" x="654" y="113" style="fill:black;" font-family="Arial" font-size="16px">Apellido</text>
   <rect width="153" height="20" x="649" y="119" style="fill:none;stroke:black;"/>
   <text width="153" height="20" x="654" y="133" style="fill:black;" font-family="Arial" font-size="16px">Telefono</text>
   <rect width="153" height="20" x="649" y="139" style="fill:none;stroke:black;"/>
   <text width="153" height="20" x="654" y="153" style="fill:black;" font-family="Arial" font-size="16px">Correo</text>
   <rect width="153" height="20" x="649" y="159" style="fill:none;stroke:black;"/>
   <text width="153" height="20" x="654" y="173" style="fill:black;" font-family="Arial" font-size="16px">Contrasena</text>
   <rect width="153" height="20" x="649" y="179" style="fill:none;stroke:black;"/>
   <text width="153" height="20" x="654" y="193" style="fill:black;" font-family="Arial" font-size="16px">Rol</text>
   <rect width="153" height="20" x="649" y="199" style="fill:none;stroke:black;"/>
   <text width="153" height="20" x="654" y="213" style="fill:black;" font-family="Arial" font-size="16px">fk_rango_competidor</text>
   <rect width="153" height="20" x="649" y="219" style="fill:none;stroke:black;"/>
   <text width="153" height="20" x="654" y="233" style="fill:black;" font-family="Arial" font-size="16px">fk_rango_juez</text>
   <rect width="153" height="20" x="649" y="239" style="fill:none;stroke:black;"/>
   <text width="153" height="20" x="654" y="253" style="fill:black;" font-family="Arial" font-size="16px">fk_region</text>
</svg>
